<?xml version="1.0" encoding="utf-8"?>
<!-- Generator: Adobe Illustrator 13.0.0, SVG Export Plug-In . SVG Version: 6.00 Build 14948)  -->
<!DOCTYPE svg PUBLIC "-//W3C//DTD SVG 1.1//EN" "http://www.w3.org/Graphics/SVG/1.1/DTD/svg11.dtd">
<svg version="1.1" id="Layer_1" xmlns="http://www.w3.org/2000/svg" xmlns:xlink="http://www.w3.org/1999/xlink" x="0px" y="0px"
	 width="559px" height="129px" viewBox="0 0 559 129" enable-background="new 0 0 559 129" xml:space="preserve">
<path d="M110.566,18.796C91.04-0.73,59.381-0.73,39.855,18.796l70.711,70.711C130.092,69.98,130.092,38.322,110.566,18.796z
	 M75.21,124.862V54.151H4.5L75.21,124.862z"/>
<g>
	<path d="M182.266,30.681h6.903v52.547h-7.192V43.871l0.361,2.313l-12.938,29.744h-5.132l-12.938-29.022l0.361-3.035v39.356H144.5
		V30.681h6.903l15.431,34.693L182.266,30.681z"/>
	<path d="M197.481,45.714h7.517l11.529,32.6l-4.084,7.986L197.481,45.714z M230.694,45.714L214.72,92.011
		c-0.578,1.709-1.336,3.064-2.276,4.064s-2.097,1.717-3.47,2.15c-1.374,0.434-3.06,0.65-5.06,0.65h-1.481v-7.084h1.481
		c1.373,0,2.463-0.277,3.271-0.83c0.808-0.555,1.512-1.506,2.114-2.855l13.878-42.393H230.694z"/>
	<path d="M259.499,30.681h5.059l10.77,41.199l9.288-41.199h7.662l-12.83,52.547h-7.517l-9.686-36.718l-10.119,36.718h-7.518
		l-12.829-52.547h7.662l9.289,41.199L259.499,30.681z"/>
	<path d="M306.046,83.771c0,0-1.229-0.65-3.687-1.951c-2.457-1.303-4.331-3.211-5.619-5.729c-1.289-2.52-1.934-5.561-1.934-9.125
		v-4.229c0-3.711,0.62-6.879,1.861-9.506c1.239-2.627,3.041-4.626,5.403-6c2.36-1.373,5.204-2.059,8.527-2.059
		c3.133,0,5.807,0.783,8.024,2.348c2.217,1.566,3.909,3.832,5.077,6.795c1.169,2.965,1.754,6.518,1.754,10.662v2.457h-25.299v-5.926
		h18.286c-0.217-3.061-1.006-5.441-2.365-7.139c-1.362-1.699-3.188-2.549-5.478-2.549c-2.794,0-4.956,0.918-6.486,2.746
		c-1.53,1.832-2.295,4.422-2.295,7.771v4.771c0,3.107,0.819,5.492,2.458,7.154c1.638,1.664,3.963,2.494,6.975,2.494
		c1.493,0,2.976-0.301,4.445-0.904c1.469-0.602,2.783-1.445,3.939-2.529l4.842,4.842c-1.854,1.783-3.938,3.164-6.252,4.141
		c-2.313,0.975-4.638,1.463-6.975,1.463C307.78,83.771,306.046,83.771,306.046,83.771z"/>
	<path d="M335.573,30.681h7.372v52.547h-7.372V30.681z M346.271,82.091c-1.734-1.121-3.012-2.705-3.831-4.754l0.506-7.842
		c0,1.615,0.288,2.986,0.867,4.119c0.578,1.133,1.415,2,2.512,2.602c1.096,0.604,2.427,0.904,3.994,0.904
		c2.433,0,4.318-0.74,5.656-2.223c1.336-1.482,2.005-3.572,2.005-6.27v-8.133c0-2.746-0.669-4.879-2.005-6.396
		c-1.338-1.518-3.224-2.277-5.656-2.277c-1.567,0-2.898,0.289-3.994,0.867c-1.097,0.578-1.934,1.428-2.512,2.549
		c-0.579,1.121-0.867,2.465-0.867,4.029l-0.759-7.229c1.132-2.191,2.614-3.884,4.444-5.077c1.831-1.192,3.868-1.788,6.108-1.788
		c2.65,0,4.92,0.596,6.812,1.788c1.892,1.193,3.332,2.935,4.319,5.224c0.988,2.289,1.482,5.047,1.482,8.275v8.168
		c0,3.18-0.507,5.902-1.518,8.166c-1.013,2.266-2.494,3.994-4.445,5.188c-1.952,1.191-4.29,1.789-7.013,1.789
		C350.04,83.771,348.005,83.21,346.271,82.091z"/>
	<path d="M388.301,83.771c0,0-1.38-0.807-4.139-2.422s-4.896-3.902-6.414-6.867c-1.519-2.963-2.277-6.396-2.277-10.299V49.761
		c0-3.902,0.759-7.335,2.277-10.299c1.518-2.964,3.655-5.258,6.414-6.885s5.958-2.439,9.595-2.439c3.012,0,5.783,0.645,8.313,1.934
		c2.53,1.289,4.645,3.114,6.344,5.475c1.697,2.362,2.849,5.097,3.45,8.205h-7.553c-0.458-1.639-1.223-3.102-2.295-4.393
		c-1.072-1.287-2.331-2.281-3.776-2.98c-1.446-0.699-2.94-1.049-4.482-1.049c-2.144,0-4.023,0.52-5.637,1.555
		c-1.615,1.037-2.868,2.488-3.759,4.355c-0.892,1.867-1.337,4.041-1.337,6.521v14.422c0,2.457,0.445,4.625,1.337,6.504
		c0.891,1.879,2.144,3.332,3.759,4.355c1.613,1.025,3.493,1.537,5.637,1.537c1.566,0,3.067-0.326,4.5-0.977
		c1.434-0.65,2.687-1.615,3.759-2.891c1.072-1.277,1.837-2.797,2.295-4.555h7.553c-0.602,3.107-1.759,5.844-3.47,8.205
		c-1.711,2.359-3.831,4.186-6.36,5.475c-2.53,1.289-5.289,1.934-8.276,1.934C390.12,83.771,388.301,83.771,388.301,83.771z"/>
	<path d="M428.994,73.542c0,0.916,0.199,1.621,0.598,2.115c0.397,0.492,0.957,0.74,1.681,0.74h3.469v7.012h-4.337
		c-2.795,0-4.957-0.869-6.487-2.604s-2.294-4.18-2.294-7.336V30.681h7.371V73.542z"/>
	<path d="M443.054,30.681h7.372v7.372h-7.372V30.681z M443.054,45.714h7.372v37.514h-7.372V45.714z"/>
	<path d="M471.784,83.771c0,0-1.229-0.65-3.687-1.951c-2.458-1.303-4.331-3.211-5.62-5.729c-1.288-2.52-1.933-5.561-1.933-9.125
		v-4.229c0-3.711,0.62-6.879,1.861-9.506c1.239-2.627,3.041-4.626,5.403-6c2.36-1.373,5.203-2.059,8.527-2.059
		c3.133,0,5.807,0.783,8.024,2.348c2.217,1.566,3.908,3.832,5.077,6.795c1.169,2.965,1.754,6.518,1.754,10.662v2.457h-25.299v-5.926
		h18.286c-0.217-3.061-1.006-5.441-2.366-7.139c-1.361-1.699-3.188-2.549-5.477-2.549c-2.794,0-4.956,0.918-6.486,2.746
		c-1.53,1.832-2.295,4.422-2.295,7.771v4.771c0,3.107,0.818,5.492,2.458,7.154c1.638,1.664,3.963,2.494,6.975,2.494
		c1.493,0,2.976-0.301,4.445-0.904c1.469-0.602,2.783-1.445,3.939-2.529l4.842,4.842c-1.855,1.783-3.938,3.164-6.252,4.141
		c-2.313,0.975-4.639,1.463-6.975,1.463C473.519,83.771,471.784,83.771,471.784,83.771z"/>
	<path d="M501.312,45.714h7.372v37.514h-7.372V45.714z M524.078,60.495c0-2.648-0.687-4.697-2.06-6.143
		c-1.373-1.447-3.301-2.168-5.781-2.168c-2.41,0-4.271,0.637-5.584,1.914c-1.313,1.277-1.97,3.072-1.97,5.385l-0.76-7.227
		c1.156-2.266,2.669-4.013,4.535-5.241c1.868-1.229,3.934-1.843,6.198-1.843c4.072,0,7.223,1.332,9.451,3.992
		c2.229,2.664,3.343,6.428,3.343,11.295v22.768h-7.373V60.495z"/>
	<path d="M539.765,45.714h16.913v6.65h-16.913V45.714z M545.746,80.897c-1.41-1.676-2.114-4.15-2.114-7.428V34.8h7.372v38.742
		c0,0.916,0.181,1.621,0.542,2.115c0.362,0.492,0.892,0.74,1.591,0.74h3.541v7.012h-4.265
		C549.378,83.409,547.155,82.571,545.746,80.897z"/>
</g>
</svg>
